<?xml version="1.0" encoding="UTF-8" standalone="no"?>
<!DOCTYPE svg PUBLIC "-//W3C//DTD SVG 1.1//EN" "http://www.w3.org/Graphics/SVG/1.1/DTD/svg11.dtd">
<svg width="100%" height="100%" viewBox="0 0 841 615" version="1.1" xmlns="http://www.w3.org/2000/svg" xmlns:xlink="http://www.w3.org/1999/xlink" xml:space="preserve" style="fill-rule:evenodd;clip-rule:evenodd;stroke-linejoin:round;stroke-miterlimit:2;">
    <g transform="matrix(1,0,0,1,0,-330)">
        <path d="M252,335.3C113.1,335.3 0.5,419.3 0.5,522.9C0.5,582.2 37.4,635.1 95,669.5L241.3,783L241.3,710.4C244.8,710.5 248.4,710.6 251.9,710.6C276.4,710.6 300.1,708 322.5,703.1C322.4,702.3 322.3,701.6 322.2,700.8C321.4,694.3 321,687.6 321,681C321,637.8 338.4,596.7 371.3,561.9C402.7,528.8 445.8,503.8 496.1,489.8C497.2,489.5 498.2,489.2 499.3,488.9C477.8,401.5 375.3,335.3 252,335.3ZM271.6,620.4L225.4,620.4L225.4,575L271.6,575L271.6,620.4ZM316,481.3C314.8,485.6 313.2,489.5 311,493.1C308.8,496.6 306.3,499.9 303.4,502.8C300.4,505.8 297.2,508.5 293.7,511C290.2,513.8 286.8,516.3 283.7,518.7C280.6,521.1 277.9,523.5 275.7,526.1C273.5,528.6 271.8,531.5 270.5,534.6C269.2,537.7 268.6,541.5 268.6,545.8L268.6,553L228.3,553L228.3,545.8C228.3,535.2 230.1,525.9 233.7,517.8C237.3,509.7 243.3,502.7 251.5,496.6C254.5,494.4 257.3,492.3 260,490.3C262.8,488.2 265.3,486.1 267.5,484C269.8,481.8 271.6,479.5 273,477.1C274.4,474.6 275.1,472 275.1,469C275.1,462.9 272.6,458.3 267.7,455.3C262.8,452.3 257.2,450.7 250.9,450.7C246.4,450.7 242.2,451.3 238.2,452.5C234.3,453.7 230.7,455.2 227.4,457.1C224.2,459 221.2,460.9 218.6,463C216,465.1 213.7,467 212,468.8L186.1,441.4C188.7,438.5 192,435.3 196.1,431.8C200.2,428.4 205.1,425.2 210.7,422.2C216.3,419.3 222.7,416.8 229.8,414.8C237,412.8 245,411.9 253.8,411.9C262.8,411.9 271.3,413.1 279.1,415.6C287,418.1 293.7,421.6 299.4,426.4C305.1,431.1 309.6,436.9 312.8,443.6C316,450.4 317.7,458 317.7,466.4C317.8,472 317.2,477 316,481.3Z" style="fill-rule:nonzero;"/>
    </g>
    <g transform="matrix(1,0,0,1,0,-330)">
        <path d="M588.5,493.3C557.5,493.3 527.8,497.5 500.4,505.1C404.9,531.7 337,600.4 337,680.9C337,686.9 337.4,692.9 338.1,698.7C350.1,793.9 457.6,868.5 588.5,868.5C592.1,868.5 595.6,868.4 599.1,868.3L599.1,939.9L704.6,858.1L719.4,846.6L740.3,830.4C800.9,796.1 840,741.9 840,680.8C839.9,577.3 727.3,493.3 588.5,493.3ZM483.2,706.9C463.7,706.9 448,691.1 448,671.7C448,652.3 463.8,636.5 483.2,636.5C502.7,636.5 518.4,652.3 518.4,671.7C518.4,691.1 502.7,706.9 483.2,706.9ZM588.5,706.9C569,706.9 553.3,691.1 553.3,671.7C553.3,652.3 569.1,636.5 588.5,636.5C607.9,636.5 623.7,652.3 623.7,671.7C623.7,691.1 607.9,706.9 588.5,706.9ZM693.7,706.9C674.3,706.9 658.5,691.1 658.5,671.7C658.5,652.3 674.3,636.5 693.7,636.5C713.2,636.5 728.9,652.3 728.9,671.7C728.9,691.1 713.2,706.9 693.7,706.9Z" style="fill-rule:nonzero;"/>
    </g>
    <!-- Original: FAQ by Gilbert Bages from the Noun Project -->
    <!-- https://thenounproject.com/term/faq/226179/ -->
</svg>
