<?xml version="1.0" encoding="UTF-8" standalone="no"?><!DOCTYPE svg PUBLIC "-//W3C//DTD SVG 1.1//EN" "http://www.w3.org/Graphics/SVG/1.1/DTD/svg11.dtd"><svg width="100%" height="100%" viewBox="0 0 24 24" version="1.1" xmlns="http://www.w3.org/2000/svg" xmlns:xlink="http://www.w3.org/1999/xlink" xml:space="preserve" style="fill-rule:evenodd;clip-rule:evenodd;stroke-linejoin:round;stroke-miterlimit:2;"><g transform="matrix(0.595252,0,0,0.602438,-93.5644,-51.366)"><circle cx="166.688" cy="95.647" r="9.048"/><rect x="158.414" y="107.798" width="16.412" height="16.412"/><g transform="matrix(0.925902,0.53457,0.53457,-0.925902,99.8266,110.693)"><path d="M69.514,58.833L57.486,58.833C56.614,58.833 55.805,58.366 55.369,57.611C54.933,56.856 54.933,55.922 55.369,55.167L56.259,53.625L61.383,44.75C61.819,43.994 62.628,43.527 63.5,43.527C64.372,43.527 65.181,43.994 65.617,44.75L66.507,46.292L71.631,55.167C72.067,55.922 72.067,56.856 71.631,57.611C71.195,58.366 70.386,58.833 69.514,58.833Z" style="fill-rule:nonzero;"/></g><path d="M194.992,116.11C194.992,116.99 194.284,117.697 193.404,117.697L180.704,117.697C179.824,117.697 179.117,116.989 179.117,116.11C179.117,115.23 179.825,114.522 180.704,114.522L193.404,114.522C194.284,114.522 194.992,115.23 194.992,116.11ZM187.054,108.172C187.934,108.172 188.642,108.88 188.642,109.76L188.642,122.46C188.642,123.34 187.934,124.047 187.054,124.047C186.174,124.047 185.467,123.339 185.467,122.46L185.467,109.76C185.467,108.88 186.175,108.172 187.054,108.172Z" style="fill-rule:nonzero;"/></g></svg>
