<svg xmlns="http://www.w3.org/2000/svg" viewBox="0 0 114 51" fill-rule="evenodd"><rect fill="#313d3e" width="114" height="51" rx="4"/><path d="M31.616 20.024a1.42 1.42 0 0 1 .427.329c.014.014.014.014.028.014h.014l3.276-1.415c.014-.014.028-.03.028-.043s0-.03-.014-.043l-3.062-3.074c-.014-.014-.028-.014-.028-.014h-.014c-.014 0-.028.014-.028.043l-.67 4.16c.014.014.028.043.043.043zm-6.794-2.788a1.87 1.87 0 0 1 .285.815c0 .014.014.03.028.043l4.87 2.102h.014c.014 0 .028 0 .028-.014a1.49 1.49 0 0 1 .5-.257c.014 0 .028-.014.028-.043l.798-5.02c0-.014 0-.03-.014-.043l-3.048-3.074c-.014-.014-.014-.014-.028-.014s-.028.014-.028.03l-3.433 5.405c-.014.03-.014.057 0 .07zM41.46 24.97l-5.23-5.27c-.014-.014-.028-.014-.028-.014h-.014l-3.547 1.53c-.014.014-.028.03-.028.043s.014.043.028.043l8.746 3.76h.014c.014 0 .028 0 .028-.014l.028-.03c.028 0 .028-.043 0-.057zm-.87.858l-8.4-3.603h-.014c-.014 0-.028 0-.043.014-.228.315-.57.515-.97.572-.014 0-.043.014-.043.043l-.897 5.6c0 .014 0 .03.014.043.313.243.5.6.54 1 0 .03.014.043.043.043l5.085 1.072c.014 0 .028 0 .028-.014l4.643-4.675c.014-.014.014-.03.014-.043s0-.03-.014-.043zm-11.1-4.775l-4.586-1.973H24.9c-.014 0-.028.014-.043.03a1.67 1.67 0 0 1-1.41.772c-.085 0-.17-.014-.27-.03h-.014c-.014 0-.028.014-.043.03l-3.775 5.934c-.014.014-.014.043 0 .057s.028.014.043.014h.014l10.07-4.36c.014-.014.028-.03.028-.043v-.13c0-.086.014-.172.028-.243 0-.03-.014-.043-.028-.057zm5.527 10.38l-4.458-.93h-.014c-.014 0-.028.014-.043.014a1.54 1.54 0 0 1-.64.486c-.014 0-.028.03-.028.043l-1.068 6.663c0 .03.014.043.028.057h.028c.014 0 .028 0 .028-.014l6.182-6.22c.014-.014.014-.03.014-.043 0-.043-.014-.057-.028-.057zm-6.225-.458a1.47 1.47 0 0 1-.855-1.001c0-.014-.014-.03-.043-.043l-8.26-1.73c-.028 0-.043.014-.057.03l-.114.186c-.014.014-.014.043 0 .057l7.52 11.038c.014.014.014.014.028.014s.028 0 .028-.014l.456-.458c0-.014.014-.014.014-.03l1.282-8.007c.028 0 .028-.03 0-.043zm-8.988-3.8c0 .03.014.043.043.043l8.204 1.716c.014 0 .028-.014.043-.03a1.43 1.43 0 0 1 1.154-.743c.028 0 .043-.014.043-.043l.883-5.505c0-.014 0-.043-.028-.043-.057-.043-.114-.086-.185-.157-.014-.014-.028-.014-.028-.014h-.014l-10.127 4.4c-.028.014-.028.03-.028.057.014.114.043.214.043.33zm-3.433 1.387l-.128-.186c-.014-.014-.028-.03-.043-.03h-.014l-3.532 1.53c-.014 0-.028.014-.028.03s0 .03.014.043l1.723 1.73c.014.014.028.014.028.014.014 0 .028-.014.043-.03l1.95-3.074s0-.014-.014-.03zm2.336.558c-.014-.014-.028-.03-.043-.03h-.014a1.89 1.89 0 0 1-.783.172c-.214 0-.413-.03-.627-.1h-.014c-.014 0-.028.014-.043.03l-2.05 3.23-.014.014c-.014.014-.014.043 0 .057l9.43 9.48c.014.014.028.014.028.014.014 0 .028 0 .028-.014l1.652-1.673c.014-.014.014-.043 0-.057l-7.55-11.124zm-1.335-3.73c.014.014.028.03.043.03h.014a2.23 2.23 0 0 1 .442-.057 1.89 1.89 0 0 1 .484.071h.014c.014 0 .028-.014.043-.03L22.23 19.4c.014-.014.014-.043 0-.057-.3-.315-.47-.73-.47-1.172a1.78 1.78 0 0 1 .043-.386c0-.03-.014-.043-.028-.057l-4.772-2.06h-.014c-.014 0-.028 0-.028.014l-3.632 3.66c-.014.014-.014.043 0 .057l4.045 6zm.413-10.466L22.3 16.88h.014c.014 0 .014 0 .028-.014a1.72 1.72 0 0 1 1.068-.386 1.92 1.92 0 0 1 .556.086h.014c.014 0 .028-.014.043-.03l3.518-5.533c.014-.014.014-.043 0-.057l-2.92-2.93C24.608 8 24.608 8 24.594 8s-.028 0-.028.014l-6.78 6.834c-.014.014-.014.03-.014.043-.014.03 0 .03.014.043zm-1.68 11.5c.014 0 .028-.014.043-.03a2.17 2.17 0 0 1 .342-.472c.014-.014.014-.043 0-.057l-3.903-5.733c-.014-.014-.014-.014-.043-.03-.014 0-.028 0-.028.014l-4.5 4.518C8 24.67 8 24.685 8 24.7s.014.03.043.03l8.062 1.716zm-.37.987c0-.03-.014-.043-.043-.043l-6.994-1.473c-.028 0-.043.014-.057.03s0 .043.014.057l3.12 3.146c.014.014.028.014.028.014h.014l3.874-1.673c.028-.03.043-.043.043-.057zm59.767-4.656h2.275v14.547h-2.275V22.765zm-23.28 4.104c-1.223 0-2.204.46-2.958 1.368l-.07-1.187H47.06v10.247h2.275V30c.455-.838 1.138-1.256 2.048-1.256.626 0 1.08.154 1.365.475.284.307.412.796.412 1.438v6.63h2.275v-6.77c-.028-2.43-1.095-3.658-3.214-3.658zm9.827 0a4.33 4.33 0 0 0-2.36.67c-.7.447-1.25 1.075-1.65 1.885-.384.8-.583 1.717-.583 2.736v.28c0 1.522.455 2.75 1.35 3.672s2.062 1.382 3.513 1.382c.84 0 1.607-.168 2.3-.503s1.223-.8 1.62-1.424l-1.223-1.187c-.654.852-1.507 1.284-2.546 1.284-.74 0-1.365-.25-1.85-.74-.498-.5-.768-1.16-.84-2h6.62v-.92c0-1.633-.384-2.9-1.123-3.783-.782-.893-1.85-1.34-3.228-1.34zm2.076 4.356h-4.337c.1-.796.356-1.4.74-1.843s.896-.656 1.522-.656 1.123.195 1.48.586.555.977.612 1.745v.168h-.014zm7.395 4.104c-.156-.168-.228-.46-.228-.852v-5.724h1.792V27.05h-1.792v-2.485h-2.275v2.485h-1.664v1.703h1.664v5.808c0 1.955.882 2.932 2.63 2.932.484 0 .98-.07 1.507-.223v-1.787a3.19 3.19 0 0 1-.796.098c-.412.014-.683-.07-.84-.25zm9.784-8.265h2.275V37.31h-2.275V27.065zm15.188 6.952l-2.147-6.952h-2.46l3.57 10.2-.327.88c-.17.503-.398.852-.697 1.06-.284.2-.725.32-1.294.32l-.427-.028v1.787a4.11 4.11 0 0 0 1.095.168c1.48 0 2.53-.866 3.157-2.583L101 27.065h-2.432l-2.076 6.952zM88.045 23.5c-.626.614-.94 1.494-.94 2.64v.935h-1.55v1.703h1.55v8.544h2.275v-8.544h2.062v-1.703H89.38v-.907c0-1.13.54-1.7 1.635-1.7a5.18 5.18 0 0 1 .867.07l.057-1.8c-.455-.112-.867-.168-1.28-.168-1.1-.014-2 .307-2.617.92zm-4.465-.935v2h-2.275v-2h2.275z" fill="#fff"/><path d="M47 18.71V13.08h1.933c.688 0 1.255.22 1.7.66s.67 1.003.67 1.69v.932c0 .69-.223 1.254-.67 1.69s-1.013.655-1.7.655H47zm1.13-4.758v3.892h.746c.405 0 .72-.137.95-.4s.344-.63.344-1.07v-.94c0-.435-.115-.8-.344-1.063s-.546-.4-.95-.4h-.746zm8.507 2.284h-2.33v1.608h2.725v.866h-3.854V13.08h3.846v.87h-2.717v1.415h2.33v.87zm3.204.433v2.04h-1.13V13.08h2.242c.647 0 1.156.165 1.527.495s.557.764.557 1.303-.186.97-.557 1.3-.88.49-1.527.49H59.84zm0-.87h1.113c.314 0 .553-.086.715-.257s.244-.4.244-.655c0-.27-.08-.494-.242-.67s-.4-.265-.717-.265H59.84v1.848zm6.146 2.045H68.5v.866h-3.633V13.08h1.13v4.762zm8.44-1.442c0 .69-.218 1.26-.655 1.712s-1.004.676-1.703.676c-.693 0-1.256-.225-1.69-.676s-.65-1.022-.65-1.712V15.39c0-.688.216-1.258.647-1.7S71.372 13 72.066 13c.698 0 1.266.226 1.705.678s.657 1.022.657 1.7V16.4zm-1.13-1.02c0-.438-.1-.798-.33-1.078s-.52-.42-.904-.42-.682.14-.893.42-.317.64-.317 1.08v1.02c0 .446.107.81.32 1.1s.51.42.893.42c.387 0 .688-.14.904-.42s.325-.644.325-1.1v-1.02zm4.766.294h.023l1.23-2.594h1.237l-1.933 3.65v1.98h-1.125v-2.037l-1.898-3.59h1.237l1.23 2.594zm6.988 1.565c0-.216-.077-.4-.23-.522s-.422-.255-.806-.37c-.67-.193-1.176-.423-1.52-.688s-.514-.63-.514-1.1.196-.838.59-1.13.895-.44 1.505-.44c.618 0 1.122.164 1.51.493s.577.734.564 1.216l-.008.023h-1.094a.82.82 0 0 0-.261-.632c-.174-.16-.418-.242-.732-.242-.3 0-.535.067-.7.2s-.247.305-.247.514c0 .19.088.347.265.47s.48.252.914.388c.62.173 1.09.4 1.41.684s.48.656.48 1.117c0 .482-.2.862-.57 1.14s-.882.417-1.505.417c-.613 0-1.148-.158-1.604-.473s-.678-.758-.665-1.328l.008-.023h1.098c0 .335.102.58.307.736s.5.234.856.234c.307 0 .54-.063.703-.19a.61.61 0 0 0 .244-.506zm5.933 1.47V13.08h1.902c.662 0 1.18.13 1.55.387s.557.643.557 1.156a1.22 1.22 0 0 1-.207.698c-.138.205-.338.36-.6.462.338.072.59.227.76.464s.253.51.253.823c0 .54-.178.946-.533 1.223s-.86.416-1.51.416h-2.168zm1.13-2.49v1.623h1.04c.3 0 .527-.065.684-.195s.236-.323.236-.578c0-.276-.067-.486-.2-.632s-.345-.218-.634-.218h-1.125zm0-.78h.812c.3 0 .533-.062.696-.186s.244-.304.244-.54c0-.26-.082-.452-.245-.576s-.408-.186-.732-.186h-.773v1.488zm6.397.236h.023l1.23-2.594H101l-1.933 3.65v1.98h-1.125v-2.037l-1.898-3.59h1.237l1.23 2.594z" fill="#bcbcbc"/></svg>