<?xml version="1.0" encoding="UTF-8" standalone="no"?>
<!DOCTYPE svg PUBLIC "-//W3C//DTD SVG 1.1//EN" "http://www.w3.org/Graphics/SVG/1.1/DTD/svg11.dtd">
<svg width="100%" height="100%" viewBox="0 0 60 37" version="1.1" xmlns="http://www.w3.org/2000/svg" xmlns:xlink="http://www.w3.org/1999/xlink" xml:space="preserve" xmlns:serif="http://www.serif.com/" style="fill-rule:evenodd;clip-rule:evenodd;stroke-linejoin:round;stroke-miterlimit:2;">
    <g id="path832" transform="matrix(2.6872,-1.389e-16,1.389e-16,2.6872,9.28814,-88.3123)">
        <path d="M11.934,39.677C11.934,39.056 12.067,38.483 12.333,37.96C12.598,37.432 12.969,37.018 13.446,36.718C13.926,36.417 14.473,36.266 15.086,36.266C15.411,36.266 15.745,36.306 16.088,36.384C16.432,36.458 16.721,36.587 16.956,36.77C17.19,36.954 17.307,37.202 17.307,37.515C17.307,37.765 17.233,37.974 17.085,38.141C16.94,38.309 16.758,38.393 16.54,38.393C16.434,38.393 16.331,38.376 16.229,38.341C16.131,38.306 16.032,38.268 15.93,38.229C15.833,38.186 15.727,38.151 15.614,38.124C15.504,38.097 15.366,38.083 15.198,38.083C14.893,38.083 14.635,38.155 14.424,38.3C14.217,38.44 14.061,38.632 13.956,38.874C13.854,39.112 13.803,39.38 13.803,39.677C13.803,39.966 13.854,40.235 13.956,40.485C14.057,40.731 14.204,40.927 14.395,41.071C14.59,41.216 14.821,41.288 15.086,41.288C15.387,41.288 15.69,41.231 15.995,41.118C16.299,41.005 16.481,40.948 16.54,40.948C16.68,40.948 16.809,40.989 16.926,41.071C17.044,41.153 17.135,41.261 17.202,41.393C17.272,41.522 17.307,41.655 17.307,41.792C17.307,42.081 17.18,42.325 16.926,42.524C16.676,42.724 16.378,42.868 16.03,42.958C15.682,43.052 15.368,43.099 15.086,43.099C14.622,43.099 14.196,43.013 13.809,42.841C13.426,42.669 13.092,42.425 12.807,42.108C12.522,41.788 12.305,41.421 12.157,41.007C12.008,40.589 11.934,40.145 11.934,39.677ZM7.961,41.991L7.961,37.362C7.961,37.085 8.047,36.854 8.219,36.671C8.395,36.483 8.62,36.39 8.893,36.39C9.12,36.39 9.315,36.45 9.479,36.571C9.647,36.688 9.764,36.827 9.831,36.987C10.233,36.507 10.665,36.266 11.126,36.266C11.379,36.266 11.602,36.358 11.794,36.542C11.989,36.722 12.086,36.954 12.086,37.239C12.086,37.532 11.995,37.745 11.811,37.878C11.631,38.011 11.333,38.138 10.915,38.259C10.489,38.38 10.202,38.532 10.053,38.716C9.905,38.895 9.831,39.22 9.831,39.688L9.831,41.991C9.831,42.268 9.743,42.503 9.567,42.694C9.395,42.882 9.17,42.975 8.893,42.975C8.62,42.975 8.395,42.882 8.219,42.694C8.047,42.503 7.961,42.268 7.961,41.991ZM5.26,41.991L5.26,37.362C5.26,37.085 5.346,36.854 5.518,36.671C5.694,36.483 5.918,36.39 6.192,36.39C6.469,36.39 6.694,36.483 6.866,36.671C7.042,36.854 7.129,37.085 7.129,37.362L7.129,41.991C7.129,42.268 7.042,42.503 6.866,42.694C6.694,42.882 6.469,42.975 6.192,42.975C5.918,42.975 5.694,42.882 5.518,42.694C5.346,42.503 5.26,42.268 5.26,41.991ZM5.079,34.696C5.079,34.391 5.188,34.128 5.407,33.905C5.625,33.682 5.887,33.571 6.192,33.571C6.5,33.571 6.764,33.681 6.983,33.899C7.202,34.118 7.311,34.384 7.311,34.696C7.311,35.02 7.202,35.29 6.983,35.505C6.764,35.72 6.5,35.827 6.192,35.827C5.887,35.827 5.625,35.718 5.407,35.499C5.188,35.28 5.079,35.013 5.079,34.696ZM-0.957,42.056L-0.746,40.479L-1.197,40.479C-1.396,40.479 -1.542,40.423 -1.636,40.309C-1.73,40.192 -1.777,40.054 -1.777,39.893C-1.777,39.733 -1.73,39.599 -1.636,39.489C-1.542,39.376 -1.396,39.319 -1.197,39.319L-0.587,39.319L-0.394,37.878L-0.851,37.878C-1.046,37.878 -1.191,37.821 -1.285,37.708C-1.378,37.591 -1.425,37.452 -1.425,37.292C-1.425,37.128 -1.378,36.991 -1.285,36.882C-1.191,36.768 -1.046,36.712 -0.851,36.712L-0.218,36.712L0.04,34.831C0.067,34.632 0.129,34.477 0.227,34.368C0.329,34.259 0.489,34.204 0.708,34.204C0.864,34.204 0.993,34.249 1.094,34.339C1.196,34.425 1.247,34.544 1.247,34.696C1.247,34.763 1.231,34.907 1.2,35.13L0.983,36.712L2.067,36.712L2.319,34.831C2.346,34.632 2.409,34.477 2.506,34.368C2.608,34.259 2.768,34.204 2.987,34.204C3.143,34.204 3.272,34.249 3.374,34.339C3.475,34.429 3.526,34.548 3.526,34.696C3.526,34.763 3.51,34.907 3.479,35.13L3.262,36.712L3.719,36.712C3.922,36.712 4.069,36.768 4.159,36.882C4.252,36.991 4.299,37.128 4.299,37.292C4.299,37.452 4.252,37.591 4.159,37.708C4.065,37.821 3.918,37.878 3.719,37.878L3.11,37.878L2.917,39.319L3.374,39.319C3.577,39.319 3.723,39.374 3.813,39.483C3.903,39.593 3.948,39.729 3.948,39.893C3.948,40.057 3.901,40.196 3.807,40.309C3.717,40.423 3.573,40.479 3.374,40.479L2.735,40.479L2.483,42.354C2.456,42.55 2.393,42.702 2.295,42.811C2.198,42.921 2.038,42.975 1.815,42.975C1.659,42.975 1.528,42.932 1.422,42.847C1.321,42.757 1.27,42.636 1.27,42.483C1.27,42.405 1.288,42.263 1.323,42.056L1.54,40.479L0.456,40.479L0.204,42.354C0.176,42.554 0.112,42.708 0.01,42.817C-0.087,42.923 -0.248,42.975 -0.47,42.975C-0.623,42.975 -0.751,42.932 -0.857,42.847C-0.958,42.757 -1.009,42.636 -1.009,42.483C-1.009,42.405 -0.992,42.263 -0.957,42.056L-0.957,42.056ZM1.715,39.319L1.909,37.878L0.819,37.878L0.626,39.319L1.715,39.319Z" style="fill:#FFFFFF;fill-rule:nonzero;"/>
    </g>
</svg>
